<svg width="115" height="73" viewBox="0 0 115 73" fill="none" xmlns="http://www.w3.org/2000/svg">
    <g clip-path="url(#clip0_1_2)">
        <path d="M4.93148 25.3579C-1.64383 34.012 -1.64383 48.1568 4.93148 56.7883L12.2524 66.4139C18.8277 75.068 29.5606 75.068 36.1359 66.4139L36.4297 66.0298L26.804 53.5119C20.2287 44.8578 22.8497 34.012 29.425 25.3579L48.6764 0.0282593H24.1603L4.93148 25.3579Z" fill="#175296"/>
        <path d="M78.8641 6.49056C82.1178 2.22 86.3884 0.0734324 90.659 0.00564575H90.6364H66.3236C61.9852 0.00564575 57.6695 2.17481 54.3931 6.49056L35.1417 31.8202H59.6127L78.5703 6.87469L78.8641 6.49056Z" fill="url(#paint0_linear_1_2)"/>
        <path d="M110.069 47.5467C116.644 38.8926 116.644 24.7478 110.069 16.1163L102.748 6.49057C96.1723 -2.16352 85.4394 -2.16352 78.8641 6.49057L78.5703 6.87469L88.196 19.3926C94.7713 28.0467 92.1502 38.8926 85.5749 47.5467L66.3235 72.8763H90.7945L110.069 47.5467Z" fill="#175296"/>
        <path d="M32.7949 66.3296C29.5411 70.6002 25.2706 72.7467 21 72.8145H21.0226H45.3354C49.6738 72.8145 53.9895 70.6453 57.2658 66.3296L76.5172 41H52.0463L33.0886 65.9455L32.7949 66.3296Z" fill="url(#paint1_linear_1_2)"/>
    </g>
    <defs>
        <linearGradient id="paint0_linear_1_2" x1="62.9071" y1="31.836" x2="62.9071" y2="0.0214608" gradientUnits="userSpaceOnUse">
            <stop stop-color="#175296"/>
            <stop offset="1" stop-color="#00ADEE"/>
        </linearGradient>
        <linearGradient id="paint1_linear_1_2" x1="48.7518" y1="40.9842" x2="48.7518" y2="72.7987" gradientUnits="userSpaceOnUse">
            <stop stop-color="#175296"/>
            <stop offset="1" stop-color="#00ADEE"/>
        </linearGradient>
        <clipPath id="clip0_1_2">
            <rect width="115" height="73" fill="white"/>
        </clipPath>
    </defs>
</svg>
